<?xml version="1.0" encoding="UTF-8"?>
<svg xmlns="http://www.w3.org/2000/svg" width="1536" height="1024" viewBox="0 0 1536 1024">
  <path d="M0,0 h51.2v51.2h-51.2z M51.2,0 h51.2v51.2h-51.2z M102.4,0 h51.2v51.2h-51.2z M153.6,0 h51.2v51.2h-51.2z M204.8,0 h51.2v51.2h-51.2z M256,0 h51.2v51.2h-51.2z M307.2,0 h51.2v51.2h-51.2z M358.4,0 h51.2v51.2h-51.2z M409.6,0 h51.2v51.2h-51.2z M460.8,0 h51.2v51.2h-51.2z M512,0 h51.2v51.2h-51.2z M614.4,0 h51.2v51.2h-51.2z M870.4,0 h51.2v51.2h-51.2z M921.6,0 h51.2v51.2h-51.2z M972.8,0 h51.2v51.2h-51.2z M1024,0 h51.2v51.2h-51.2z M1075.2,0 h51.2v51.2h-51.2z M1126.4,0 h51.2v51.2h-51.2z M1177.6,0 h51.2v51.2h-51.2z M1331.2,0 h51.2v51.2h-51.2z M1382.4,0 h51.2v51.2h-51.2z M1433.6,0 h51.2v51.2h-51.2z M1484.8,0 h51.2v51.2h-51.2z M0,51.2 h51.2v51.2h-51.2z M51.2,51.2 h51.2v51.2h-51.2z M102.4,51.2 h51.2v51.2h-51.2z M153.6,51.2 h51.2v51.2h-51.2z M204.8,51.2 h51.2v51.2h-51.2z M256,51.2 h51.2v51.2h-51.2z M307.2,51.2 h51.2v51.2h-51.2z M358.4,51.2 h51.2v51.2h-51.2z M409.6,51.2 h51.2v51.2h-51.2z M460.8,51.2 h51.2v51.2h-51.2z M512,51.2 h51.2v51.2h-51.2z M563.2,51.2 h51.2v51.2h-51.2z M614.4,51.2 h51.2v51.2h-51.2z M819.2,51.2 h51.2v51.2h-51.2z M870.4,51.2 h51.2v51.2h-51.2z M921.6,51.2 h51.2v51.2h-51.2z M972.8,51.2 h51.2v51.2h-51.2z M1024,51.2 h51.2v51.2h-51.2z M1075.2,51.2 h51.2v51.2h-51.2z M1126.4,51.2 h51.2v51.2h-51.2z M1331.2,51.2 h51.2v51.2h-51.2z M1382.4,51.2 h51.2v51.2h-51.2z M1433.6,51.2 h51.2v51.2h-51.2z M1484.8,51.2 h51.2v51.2h-51.2z M0,102.4 h51.2v51.2h-51.2z M51.2,102.4 h51.2v51.2h-51.2z M102.4,102.4 h51.2v51.2h-51.2z M153.6,102.4 h51.2v51.2h-51.2z M204.8,102.4 h51.2v51.2h-51.2z M256,102.4 h51.2v51.2h-51.2z M307.2,102.4 h51.2v51.2h-51.2z M358.4,102.4 h51.2v51.2h-51.2z M409.6,102.4 h51.2v51.2h-51.2z M460.8,102.4 h51.2v51.2h-51.2z M614.4,102.4 h51.2v51.2h-51.2z M870.4,102.4 h51.2v51.2h-51.2z M921.6,102.4 h51.2v51.2h-51.2z M972.8,102.4 h51.2v51.2h-51.2z M1024,102.4 h51.2v51.2h-51.2z M1228.8,102.4 h51.2v51.2h-51.2z M1280,102.4 h51.2v51.2h-51.2z M1331.2,102.4 h51.2v51.2h-51.2z M1382.4,102.4 h51.2v51.2h-51.2z M1433.6,102.4 h51.2v51.2h-51.2z M1484.8,102.4 h51.2v51.2h-51.2z M0,153.6 h51.2v51.2h-51.2z M51.2,153.6 h51.2v51.2h-51.2z M102.4,153.6 h51.2v51.2h-51.2z M153.6,153.6 h51.2v51.2h-51.2z M204.8,153.6 h51.2v51.2h-51.2z M256,153.6 h51.2v51.2h-51.2z M307.2,153.6 h51.2v51.2h-51.2z M358.4,153.6 h51.2v51.2h-51.2z M409.6,153.6 h51.2v51.2h-51.2z M563.2,153.6 h51.2v51.2h-51.2z M614.4,153.6 h51.2v51.2h-51.2z M819.2,153.6 h51.2v51.2h-51.2z M870.4,153.6 h51.2v51.2h-51.2z M921.6,153.6 h51.2v51.2h-51.2z M972.8,153.6 h51.2v51.2h-51.2z M1228.8,153.6 h51.2v51.2h-51.2z M1280,153.6 h51.2v51.2h-51.2z M1331.2,153.6 h51.2v51.2h-51.2z M1382.4,153.6 h51.2v51.2h-51.2z M1433.6,153.6 h51.2v51.2h-51.2z M1484.8,153.6 h51.2v51.2h-51.2z M0,204.8 h51.2v51.2h-51.2z M51.2,204.8 h51.2v51.2h-51.2z M102.4,204.8 h51.2v51.2h-51.2z M153.6,204.8 h51.2v51.2h-51.2z M204.8,204.8 h51.2v51.2h-51.2z M256,204.8 h51.2v51.2h-51.2z M307.2,204.8 h51.2v51.2h-51.2z M358.4,204.8 h51.2v51.2h-51.2z M460.8,204.8 h51.2v51.2h-51.2z M512,204.8 h51.2v51.2h-51.2z M563.2,204.8 h51.2v51.2h-51.2z M768,204.8 h51.2v51.2h-51.2z M819.2,204.8 h51.2v51.2h-51.2z M870.4,204.8 h51.2v51.2h-51.2z M921.6,204.8 h51.2v51.2h-51.2z M1126.4,204.8 h51.2v51.2h-51.2z M1177.6,204.8 h51.2v51.2h-51.2z M1228.8,204.8 h51.2v51.2h-51.2z M1280,204.8 h51.2v51.2h-51.2z M1331.2,204.8 h51.2v51.2h-51.2z M1382.4,204.8 h51.2v51.2h-51.2z M1433.6,204.8 h51.2v51.2h-51.2z M1484.8,204.8 h51.2v51.2h-51.2z M0,256 h51.2v51.2h-51.2z M51.2,256 h51.2v51.2h-51.2z M102.4,256 h51.2v51.2h-51.2z M153.6,256 h51.2v51.2h-51.2z M204.8,256 h51.2v51.2h-51.2z M256,256 h51.2v51.2h-51.2z M307.2,256 h51.2v51.2h-51.2z M358.4,256 h51.2v51.2h-51.2z M409.6,256 h51.2v51.2h-51.2z M716.8,256 h51.2v51.2h-51.2z M768,256 h51.2v51.2h-51.2z M1075.2,256 h51.2v51.2h-51.2z M1126.4,256 h51.2v51.2h-51.2z M1177.6,256 h51.2v51.2h-51.2z M1382.4,256 h51.2v51.2h-51.2z M1433.6,256 h51.2v51.2h-51.2z M1484.8,256 h51.2v51.2h-51.2z M0,307.2 h51.2v51.2h-51.2z M51.2,307.2 h51.2v51.2h-51.2z M102.4,307.2 h51.2v51.2h-51.2z M153.6,307.2 h51.2v51.2h-51.2z M204.8,307.2 h51.2v51.2h-51.2z M256,307.2 h51.2v51.2h-51.2z M307.2,307.2 h51.2v51.2h-51.2z M358.4,307.2 h51.2v51.2h-51.2z M409.6,307.2 h51.2v51.2h-51.2z M665.6,307.2 h51.2v51.2h-51.2z M972.8,307.2 h51.2v51.2h-51.2z M1024,307.2 h51.2v51.2h-51.2z M1075.2,307.2 h51.2v51.2h-51.2z M1331.2,307.2 h51.2v51.2h-51.2z M1382.4,307.2 h51.2v51.2h-51.2z M1433.6,307.2 h51.2v51.2h-51.2z M1484.8,307.2 h51.2v51.2h-51.2z M0,358.4 h51.2v51.2h-51.2z M51.2,358.4 h51.2v51.2h-51.2z M102.4,358.4 h51.2v51.2h-51.2z M204.8,358.4 h51.2v51.2h-51.2z M256,358.4 h51.2v51.2h-51.2z M307.2,358.4 h51.2v51.2h-51.2z M358.4,358.4 h51.2v51.2h-51.2z M409.6,358.4 h51.2v51.2h-51.2z M614.4,358.4 h51.2v51.2h-51.2z M870.4,358.4 h51.2v51.2h-51.2z M921.6,358.4 h51.2v51.2h-51.2z M972.8,358.4 h51.2v51.2h-51.2z M1024,358.4 h51.2v51.2h-51.2z M1484.8,358.4 h51.2v51.2h-51.2z M0,409.6 h51.2v51.2h-51.2z M51.2,409.6 h51.2v51.2h-51.2z M102.4,409.6 h51.2v51.2h-51.2z M153.6,409.6 h51.2v51.2h-51.2z M204.8,409.6 h51.2v51.2h-51.2z M256,409.6 h51.2v51.2h-51.2z M307.2,409.6 h51.2v51.2h-51.2z M358.4,409.6 h51.2v51.2h-51.2z M409.6,409.6 h51.2v51.2h-51.2z M460.8,409.6 h51.2v51.2h-51.2z M512,409.6 h51.2v51.2h-51.2z M563.2,409.6 h51.2v51.2h-51.2z M614.4,409.6 h51.2v51.2h-51.2z M768,409.6 h51.2v51.2h-51.2z M819.2,409.6 h51.2v51.2h-51.2z M870.4,409.6 h51.2v51.2h-51.2z M921.6,409.6 h51.2v51.2h-51.2z M972.8,409.6 h51.2v51.2h-51.2z M1024,409.6 h51.2v51.2h-51.2z M1075.2,409.6 h51.2v51.2h-51.2z M102.4,460.8 h51.2v51.2h-51.2z M153.6,460.8 h51.2v51.2h-51.2z M204.8,460.8 h51.2v51.2h-51.2z M256,460.8 h51.2v51.2h-51.2z M307.2,460.8 h51.2v51.2h-51.2z M409.6,460.8 h51.2v51.2h-51.2z M460.8,460.8 h51.2v51.2h-51.2z M512,460.8 h51.2v51.2h-51.2z M563.2,460.8 h51.2v51.2h-51.2z M614.4,460.8 h51.2v51.2h-51.2z M665.6,460.8 h51.2v51.2h-51.2z M716.8,460.8 h51.2v51.2h-51.2z M768,460.8 h51.2v51.2h-51.2z M819.2,460.8 h51.2v51.2h-51.2z M870.4,460.8 h51.2v51.2h-51.2z M1024,460.8 h51.2v51.2h-51.2z M1075.2,460.8 h51.2v51.2h-51.2z M102.4,512 h51.2v51.2h-51.2z M153.6,512 h51.2v51.2h-51.2z M204.8,512 h51.2v51.2h-51.2z M256,512 h51.2v51.2h-51.2z M307.2,512 h51.2v51.2h-51.2z M358.4,512 h51.2v51.2h-51.2z M409.6,512 h51.2v51.2h-51.2z M460.8,512 h51.2v51.2h-51.2z M512,512 h51.2v51.2h-51.2z M563.2,512 h51.2v51.2h-51.2z M614.4,512 h51.2v51.2h-51.2z M665.6,512 h51.2v51.2h-51.2z M716.8,512 h51.2v51.2h-51.2z M768,512 h51.2v51.2h-51.2z M819.2,512 h51.2v51.2h-51.2z M870.4,512 h51.2v51.2h-51.2z M1075.2,512 h51.2v51.2h-51.2z M1126.4,512 h51.2v51.2h-51.2z M51.2,563.2 h51.2v51.2h-51.2z M102.4,563.2 h51.2v51.2h-51.2z M153.6,563.2 h51.2v51.2h-51.2z M204.8,563.2 h51.2v51.2h-51.2z M256,563.2 h51.2v51.2h-51.2z M307.2,563.2 h51.2v51.2h-51.2z M358.4,563.2 h51.2v51.2h-51.2z M409.6,563.2 h51.2v51.2h-51.2z M460.8,563.2 h51.2v51.2h-51.2z M512,563.2 h51.2v51.2h-51.2z M563.2,563.2 h51.2v51.2h-51.2z M614.4,563.2 h51.2v51.2h-51.2z M665.6,563.2 h51.2v51.2h-51.2z M716.8,563.2 h51.2v51.2h-51.2z M768,563.2 h51.2v51.2h-51.2z M819.2,563.2 h51.2v51.2h-51.2z M1075.2,563.2 h51.2v51.2h-51.2z M1126.4,563.2 h51.2v51.2h-51.2z M1280,563.2 h51.2v51.2h-51.2z M1331.2,563.2 h51.2v51.2h-51.2z M1382.4,563.2 h51.2v51.2h-51.2z M1433.6,563.2 h51.2v51.2h-51.2z M1484.8,563.2 h51.2v51.2h-51.2z M0,614.4 h51.2v51.2h-51.2z M51.2,614.4 h51.2v51.2h-51.2z M102.4,614.4 h51.2v51.2h-51.2z M153.6,614.4 h51.2v51.2h-51.2z M204.8,614.4 h51.2v51.2h-51.2z M256,614.4 h51.2v51.2h-51.2z M409.6,614.4 h51.2v51.2h-51.2z M460.8,614.4 h51.2v51.2h-51.2z M512,614.4 h51.2v51.2h-51.2z M563.2,614.4 h51.2v51.2h-51.2z M665.6,614.4 h51.2v51.2h-51.2z M716.8,614.4 h51.2v51.2h-51.2z M768,614.4 h51.2v51.2h-51.2z M819.2,614.4 h51.2v51.2h-51.2z M972.8,614.4 h51.2v51.2h-51.2z M1024,614.4 h51.2v51.2h-51.2z M1075.2,614.4 h51.2v51.2h-51.2z M1126.4,614.4 h51.2v51.2h-51.2z M1177.6,614.4 h51.2v51.2h-51.2z M1228.8,614.4 h51.2v51.2h-51.2z M1280,614.4 h51.2v51.2h-51.2z M1331.2,614.4 h51.2v51.2h-51.2z M1382.4,614.4 h51.2v51.2h-51.2z M1433.6,614.4 h51.2v51.2h-51.2z M0,665.6 h51.2v51.2h-51.2z M51.2,665.6 h51.2v51.2h-51.2z M102.4,665.6 h51.2v51.2h-51.2z M153.6,665.6 h51.2v51.2h-51.2z M204.8,665.6 h51.2v51.2h-51.2z M256,665.6 h51.2v51.2h-51.2z M307.2,665.6 h51.2v51.2h-51.2z M358.4,665.6 h51.2v51.2h-51.2z M409.6,665.6 h51.2v51.2h-51.2z M460.8,665.6 h51.2v51.2h-51.2z M512,665.6 h51.2v51.2h-51.2z M563.2,665.6 h51.2v51.2h-51.2z M614.4,665.6 h51.2v51.2h-51.2z M665.6,665.6 h51.2v51.2h-51.2z M716.8,665.6 h51.2v51.2h-51.2z M768,665.6 h51.2v51.2h-51.2z M819.2,665.6 h51.2v51.2h-51.2z M972.8,665.6 h51.2v51.2h-51.2z M1024,665.6 h51.2v51.2h-51.2z M1075.2,665.6 h51.2v51.2h-51.2z M1126.4,665.6 h51.2v51.2h-51.2z M1177.6,665.6 h51.2v51.2h-51.2z M1228.8,665.6 h51.2v51.2h-51.2z M1280,665.6 h51.2v51.2h-51.2z M1331.2,665.6 h51.2v51.2h-51.2z M1382.4,665.6 h51.2v51.2h-51.2z M1433.6,665.6 h51.2v51.2h-51.2z M0,716.8 h51.2v51.2h-51.2z M51.2,716.8 h51.2v51.2h-51.2z M153.6,716.8 h51.2v51.2h-51.2z M204.8,716.8 h51.2v51.2h-51.2z M256,716.8 h51.2v51.2h-51.2z M307.2,716.8 h51.2v51.2h-51.2z M358.4,716.8 h51.2v51.2h-51.2z M409.6,716.8 h51.2v51.2h-51.2z M460.8,716.8 h51.2v51.2h-51.2z M512,716.8 h51.2v51.2h-51.2z M614.4,716.8 h51.2v51.2h-51.2z M665.6,716.8 h51.2v51.2h-51.2z M716.8,716.8 h51.2v51.2h-51.2z M768,716.8 h51.2v51.2h-51.2z M921.6,716.8 h51.2v51.2h-51.2z M972.8,716.8 h51.2v51.2h-51.2z M1024,716.8 h51.2v51.2h-51.2z M1075.2,716.8 h51.2v51.2h-51.2z M1126.4,716.8 h51.2v51.2h-51.2z M1177.6,716.8 h51.2v51.2h-51.2z M1228.8,716.8 h51.2v51.2h-51.2z M1280,716.8 h51.2v51.2h-51.2z M1331.2,716.8 h51.2v51.2h-51.2z M1382.4,716.8 h51.2v51.2h-51.2z M1433.6,716.8 h51.2v51.2h-51.2z M1484.8,716.8 h51.2v51.2h-51.2z M0,768 h51.2v51.2h-51.2z M51.2,768 h51.2v51.2h-51.2z M102.4,768 h51.2v51.2h-51.2z M153.6,768 h51.2v51.2h-51.2z M204.8,768 h51.2v51.2h-51.2z M256,768 h51.2v51.2h-51.2z M307.2,768 h51.2v51.2h-51.2z M358.4,768 h51.2v51.2h-51.2z M409.6,768 h51.2v51.2h-51.2z M460.8,768 h51.2v51.2h-51.2z M512,768 h51.2v51.2h-51.2z M563.2,768 h51.2v51.2h-51.2z M614.4,768 h51.2v51.2h-51.2z M665.6,768 h51.2v51.2h-51.2z M716.8,768 h51.2v51.2h-51.2z M768,768 h51.2v51.2h-51.2z M870.4,768 h51.2v51.2h-51.2z M921.6,768 h51.2v51.2h-51.2z M972.8,768 h51.2v51.2h-51.2z M1024,768 h51.2v51.2h-51.2z M1075.2,768 h51.2v51.2h-51.2z M1126.4,768 h51.2v51.2h-51.2z M1228.8,768 h51.2v51.2h-51.2z M1280,768 h51.2v51.2h-51.2z M1331.2,768 h51.2v51.2h-51.2z M1382.4,768 h51.2v51.2h-51.2z M1433.6,768 h51.2v51.2h-51.2z M1484.8,768 h51.2v51.2h-51.2z M0,819.2 h51.2v51.2h-51.2z M51.2,819.2 h51.2v51.2h-51.2z M102.4,819.2 h51.2v51.2h-51.2z M153.6,819.2 h51.2v51.2h-51.2z M256,819.2 h51.2v51.2h-51.2z M307.2,819.2 h51.2v51.2h-51.2z M358.4,819.2 h51.2v51.2h-51.2z M409.6,819.2 h51.2v51.2h-51.2z M460.8,819.2 h51.2v51.2h-51.2z M512,819.2 h51.2v51.2h-51.2z M563.2,819.2 h51.2v51.2h-51.2z M614.4,819.2 h51.2v51.2h-51.2z M665.6,819.2 h51.2v51.2h-51.2z M716.8,819.2 h51.2v51.2h-51.2z M768,819.2 h51.2v51.2h-51.2z M819.2,819.2 h51.2v51.2h-51.2z M870.4,819.2 h51.2v51.2h-51.2z M921.6,819.2 h51.2v51.2h-51.2z M972.8,819.2 h51.2v51.2h-51.2z M1024,819.2 h51.2v51.2h-51.2z M1075.2,819.2 h51.2v51.2h-51.2z M1126.4,819.2 h51.2v51.2h-51.2z M1177.6,819.2 h51.2v51.2h-51.2z M1228.8,819.2 h51.2v51.2h-51.2z M1280,819.2 h51.2v51.2h-51.2z M1331.2,819.2 h51.2v51.2h-51.2z M1382.4,819.2 h51.2v51.2h-51.2z M1433.6,819.2 h51.2v51.2h-51.2z M1484.8,819.2 h51.2v51.2h-51.2z M0,870.4 h51.2v51.2h-51.2z M51.2,870.4 h51.2v51.2h-51.2z M102.4,870.4 h51.2v51.2h-51.2z M153.6,870.4 h51.2v51.2h-51.2z M204.8,870.4 h51.2v51.2h-51.2z M256,870.4 h51.2v51.2h-51.2z M307.2,870.4 h51.2v51.2h-51.2z M358.4,870.4 h51.2v51.2h-51.2z M409.6,870.4 h51.2v51.2h-51.2z M460.8,870.4 h51.2v51.2h-51.2z M512,870.4 h51.2v51.2h-51.2z M563.2,870.4 h51.2v51.2h-51.2z M614.4,870.4 h51.2v51.2h-51.2z M665.6,870.4 h51.2v51.2h-51.2z M716.8,870.4 h51.2v51.2h-51.2z M768,870.4 h51.2v51.2h-51.2z M819.2,870.4 h51.2v51.2h-51.2z M870.4,870.4 h51.2v51.2h-51.2z M921.6,870.4 h51.2v51.2h-51.2z M972.8,870.4 h51.2v51.2h-51.2z M1024,870.4 h51.2v51.2h-51.2z M1075.2,870.4 h51.2v51.2h-51.2z M1126.4,870.4 h51.2v51.2h-51.2z M1177.6,870.4 h51.2v51.2h-51.2z M1228.8,870.4 h51.2v51.2h-51.2z M1280,870.4 h51.2v51.2h-51.2z M1331.2,870.4 h51.2v51.2h-51.2z M1382.4,870.4 h51.2v51.2h-51.2z M1433.6,870.4 h51.2v51.2h-51.2z M1484.8,870.4 h51.2v51.2h-51.2z M0,921.6 h51.2v51.2h-51.2z M51.2,921.6 h51.2v51.2h-51.2z M102.4,921.6 h51.2v51.2h-51.2z M153.6,921.6 h51.2v51.2h-51.2z M204.8,921.6 h51.2v51.2h-51.2z M256,921.6 h51.2v51.2h-51.2z M307.2,921.6 h51.2v51.2h-51.2z M358.4,921.6 h51.2v51.2h-51.2z M409.6,921.6 h51.2v51.2h-51.2z M460.8,921.6 h51.2v51.2h-51.2z M512,921.6 h51.2v51.2h-51.2z M563.2,921.6 h51.2v51.2h-51.2z M614.4,921.6 h51.2v51.2h-51.2z M665.6,921.6 h51.2v51.2h-51.2z M716.8,921.6 h51.2v51.2h-51.2z M768,921.6 h51.2v51.2h-51.2z M819.2,921.6 h51.2v51.2h-51.2z M870.4,921.6 h51.2v51.2h-51.2z M921.6,921.6 h51.2v51.2h-51.2z M972.8,921.6 h51.2v51.2h-51.2z M1024,921.6 h51.2v51.2h-51.2z M1075.2,921.6 h51.2v51.2h-51.2z M1126.4,921.6 h51.2v51.2h-51.2z M1177.6,921.6 h51.2v51.2h-51.2z M1228.8,921.6 h51.2v51.2h-51.2z M1280,921.6 h51.2v51.2h-51.2z M1331.2,921.6 h51.2v51.2h-51.2z M1382.4,921.6 h51.2v51.2h-51.2z M1433.6,921.6 h51.2v51.2h-51.2z M1484.8,921.6 h51.2v51.2h-51.2z M0,972.8 h51.2v51.2h-51.2z M51.2,972.8 h51.2v51.2h-51.2z M102.4,972.8 h51.2v51.2h-51.2z M153.6,972.8 h51.2v51.2h-51.2z M204.8,972.8 h51.2v51.2h-51.2z M256,972.8 h51.2v51.2h-51.2z M307.2,972.8 h51.2v51.2h-51.2z M358.4,972.8 h51.2v51.2h-51.2z M409.6,972.8 h51.2v51.2h-51.2z M460.8,972.8 h51.2v51.2h-51.2z M512,972.8 h51.2v51.2h-51.2z M563.2,972.8 h51.2v51.2h-51.2z M614.4,972.8 h51.2v51.2h-51.2z M665.6,972.8 h51.2v51.2h-51.2z M716.8,972.8 h51.2v51.2h-51.2z M768,972.8 h51.2v51.2h-51.2z M819.2,972.8 h51.2v51.2h-51.2z M870.4,972.8 h51.2v51.2h-51.2z M921.6,972.8 h51.2v51.2h-51.2z M972.8,972.8 h51.2v51.2h-51.2z M1024,972.8 h51.2v51.2h-51.2z M1075.2,972.8 h51.2v51.2h-51.2z M1126.4,972.8 h51.2v51.2h-51.2z M1177.6,972.8 h51.2v51.2h-51.2z M1228.8,972.8 h51.2v51.2h-51.2z M1280,972.8 h51.2v51.2h-51.2z M1331.2,972.8 h51.2v51.2h-51.2z M1382.4,972.8 h51.2v51.2h-51.2z M1433.6,972.8 h51.2v51.2h-51.2z M1484.8,972.8 h51.2v51.2h-51.2z" fill="#000000"/>
</svg>